<svg width="270" height="310" viewBox="0 0 270 310" fill="none" xmlns="http://www.w3.org/2000/svg">
<path d="M83.337 180.838C89.0459 180.838 93.6701 185.465 93.6701 191.171C93.6701 194.024 95.9835 196.337 98.8367 196.337C101.69 196.337 104.003 194.024 104.003 191.171C103.968 181.776 97.6005 173.588 88.5036 171.239V165.338C88.5036 162.485 86.1902 160.172 83.337 160.172C80.4838 160.172 78.1705 162.485 78.1705 165.338V171.239C68.1048 173.83 61.5406 183.504 62.8525 193.815C64.1643 204.125 72.9434 211.85 83.337 211.837C89.0459 211.837 93.6701 216.464 93.6701 222.17C93.6701 227.877 89.0459 232.503 83.337 232.503C77.6306 232.503 73.0039 227.877 73.0039 222.17C73.0039 219.317 70.6906 217.004 67.8374 217.004C64.9842 217.004 62.6708 219.317 62.6708 222.17C62.7061 231.565 69.076 239.754 78.1705 242.102V248.003C78.1705 250.856 80.4838 253.17 83.337 253.17C86.1902 253.17 88.5036 250.856 88.5036 248.003V242.117C98.602 239.552 105.199 229.859 103.885 219.526C102.57 209.191 93.7559 201.459 83.337 201.504C77.6306 201.504 73.0039 196.877 73.0039 191.171C73.0039 185.465 77.6306 180.838 83.337 180.838Z" fill="#F8F8F8"/>
<path d="M98.8367 129.172H67.8374C64.9842 129.172 62.6708 131.485 62.6708 134.338C62.6708 137.192 64.9842 139.505 67.8374 139.505H98.8367C101.69 139.505 104.003 137.192 104.003 134.338C104.003 131.485 101.69 129.172 98.8367 129.172Z" fill="#F8F8F8"/>
<path d="M98.8367 273.836H67.8374C64.9842 273.836 62.6708 276.149 62.6708 279.002C62.6708 281.855 64.9842 284.169 67.8374 284.169H98.8367C101.69 284.169 104.003 281.855 104.003 279.002C104.003 276.149 101.69 273.836 98.8367 273.836Z" fill="#F8F8F8"/>
<path d="M263.097 198.919L187.248 67.5584C191.915 62.9292 196.045 57.7853 199.554 52.2252C208.167 38.2745 209.706 25.0327 203.883 14.9494C192.296 -5.12396 155.702 -4.96251 120.573 15.3152C115.908 18.0473 111.423 21.0721 107.142 24.3718L102.972 19.6391C97.9993 14.0084 90.8499 10.7793 83.3372 10.7743C75.827 10.7793 68.6776 14.0084 63.7053 19.6391L7.22392 83.6433C3.00087 88.4264 0.669873 94.5894 0.672396 100.972V263.501C0.702669 289.17 21.5026 309.972 47.1713 310H119.503C145.172 309.972 165.974 289.17 166.002 263.501V100.972C165.992 95.9946 164.556 91.1232 161.87 86.9329H161.91C168.088 83.3608 173.951 79.2714 179.436 74.7103L254.149 204.086C264.144 221.384 258.22 243.509 240.917 253.499L178.278 289.664C175.523 291.239 172.569 292.442 169.496 293.239C166.739 293.973 165.096 296.804 165.83 299.561C166.562 302.319 169.393 303.961 172.152 303.227C176.093 302.19 179.882 300.638 183.419 298.613L246.058 262.447C268.311 249.614 275.943 221.167 263.097 198.919ZM155.669 263.501C155.646 283.466 139.468 299.644 119.503 299.667H47.1713C27.209 299.644 11.0282 283.466 11.0055 263.501V100.972C11.0055 97.1071 12.4157 93.376 14.9737 90.4774L71.4551 26.4808C74.4622 23.0675 78.7887 21.1099 83.3372 21.1074C87.8857 21.1099 92.2147 23.0675 95.2218 26.4808L145.611 83.5853C134.092 89.0192 121.504 91.8119 108.769 91.7589C109.003 90.4648 109.137 89.1529 109.17 87.8386C109.155 73.5776 97.5982 62.0235 83.3372 62.0059C82.7696 62.0235 82.2095 62.137 81.6798 62.3414C79.0763 62.021 76.6545 63.7264 76.0742 66.2844C74.2352 73.3455 75.1383 80.8406 78.5995 87.2634C82.0329 92.9497 87.3736 97.2307 93.6703 99.3397C89.142 103.472 82.5955 104.529 76.995 102.037C71.3921 99.5415 67.7997 93.9688 67.8375 87.8386C67.8375 84.9854 65.5242 82.6721 62.671 82.6721C59.8178 82.6721 57.5044 84.9854 57.5044 87.8386C57.4918 99.2918 65.0297 109.383 76.0188 112.617C87.0052 115.851 98.8091 111.454 105.002 101.82C107.036 102.034 109.079 102.148 111.125 102.155C125.548 101.719 139.705 98.154 152.616 91.7085C154.587 94.3977 155.654 97.6394 155.669 100.972V263.501ZM98.8368 87.8386C98.8167 88.5954 98.741 89.3497 98.6098 90.0964C94.0512 88.9108 90.1031 86.0575 87.5501 82.0969C85.9558 79.1882 85.2721 75.8682 85.5849 72.566C93.1733 73.6785 98.8066 80.1695 98.8368 87.8386ZM156.739 77.9394C156.224 78.2396 155.707 78.4969 155.19 78.787L114.011 32.1166C117.76 29.2734 121.678 26.6599 125.739 24.2885C154.844 7.47707 186.534 5.57745 194.93 20.1563C198.77 26.7961 197.286 36.2765 190.76 46.8417C188.179 50.9412 185.205 54.7782 181.875 58.2949L181.822 58.2016C178.636 52.6743 173.535 48.5017 167.485 46.4684L147.253 39.6292C144.579 38.8144 141.741 40.2751 140.85 42.9239C139.957 45.5753 141.337 48.4538 143.963 49.42L164.196 56.2238C167.856 57.4574 170.941 59.9826 172.874 63.3278L174.191 65.6058C168.769 70.2552 162.927 74.3874 156.739 77.9545V77.9394Z" fill="#F8F8F8"/>
<path d="M177.029 208.258C178.454 210.728 181.615 211.575 184.085 210.147L219.88 189.481C221.492 188.565 222.488 186.855 222.493 185.001C222.496 183.147 221.507 181.434 219.9 180.51C218.29 179.587 216.313 179.595 214.713 180.533L178.918 201.199C176.449 202.627 175.601 205.786 177.029 208.258Z" fill="#F8F8F8"/>
<path d="M183.57 240.251C184.993 242.723 188.154 243.573 190.626 242.145L235.369 216.312C237.841 214.887 238.689 211.726 237.261 209.254C235.836 206.782 232.675 205.934 230.203 207.359L185.46 233.192C182.99 234.62 182.142 237.778 183.57 240.251Z" fill="#F8F8F8"/>
<path d="M186.489 178.132C187.395 178.132 188.285 177.892 189.072 177.438L206.968 167.105C208.58 166.189 209.577 164.479 209.582 162.625C209.584 160.773 208.596 159.058 206.989 158.134C205.382 157.211 203.401 157.219 201.802 158.157L183.906 168.49C181.88 169.661 180.893 172.042 181.499 174.303C182.104 176.56 184.15 178.132 186.489 178.132Z" fill="#F8F8F8"/>
</svg>
