<svg width="310" height="306" viewBox="0 0 310 306" fill="none" xmlns="http://www.w3.org/2000/svg"  opacity="0.1">
<path d="M274.426 295.295H30.4918C27.6853 295.295 25.4098 297.571 25.4098 300.377C25.4098 303.184 27.6853 305.459 30.4918 305.459H274.426C277.233 305.459 279.508 303.184 279.508 300.377C279.508 297.571 277.233 295.295 274.426 295.295Z" fill="#F8F8F8"/>
<path d="M55.9016 183.492C69.9341 183.492 81.3115 194.869 81.3115 208.902V229.23C81.3115 232.036 83.587 234.312 86.3934 234.312C89.1999 234.312 91.4754 232.036 91.4754 229.23V208.902C91.4804 193.167 81.1452 179.298 66.0656 174.802V162.655C77.897 160.241 86.3959 149.831 86.3934 137.754V111.684C95.3638 109.367 101.632 101.28 101.639 92.0164V76.7705C101.639 73.964 99.3639 71.6886 96.5574 71.6886H40.6557C23.8168 71.6886 10.1639 85.3414 10.1639 102.18V122.508C10.1714 131.771 16.4395 139.858 25.4098 142.176V174.802C10.3302 179.298 -0.00496107 193.167 1.78656e-06 208.902V280.049C1.78656e-06 282.856 2.27547 285.131 5.08197 285.131C7.88847 285.131 10.1639 282.856 10.1639 280.049V208.902C10.1639 194.869 21.5413 183.492 35.5738 183.492H55.9016ZM76.2295 137.754C76.2295 146.174 69.4031 153 60.9836 153H35.5738V142.836H40.6557C46.2687 142.836 50.8197 138.285 50.8197 132.672V112.344H76.2295V137.754ZM20.3279 122.508V102.18C20.3279 90.9544 29.4298 81.8525 40.6557 81.8525H91.4754V92.0164C91.4754 97.6294 86.9245 102.18 81.3115 102.18H45.7377C42.9312 102.18 40.6557 104.456 40.6557 107.262V132.672H30.4918C24.8788 132.672 20.3279 128.121 20.3279 122.508ZM35.5738 163.164H55.9016V173.328H35.5738V163.164Z" fill="#F8F8F8"/>
<path d="M289.672 147.918V134.297C302.079 128.414 309.99 115.912 310 102.18V97.0982C310 77.4503 294.074 61.5245 274.426 61.5245H223.607C216.413 61.4897 209.542 64.5071 204.698 69.8248C199.854 75.1425 197.492 82.2642 198.197 89.4256C199.517 100.426 207.686 109.371 218.525 111.684V137.754C218.522 149.831 227.021 160.241 238.852 162.655V174.802C223.773 179.298 213.438 193.167 213.443 208.902V229.229C213.443 232.036 215.718 234.311 218.525 234.311C221.331 234.311 223.607 232.036 223.607 229.229V208.902C223.607 194.869 234.984 183.492 249.016 183.492H269.344C283.377 183.492 294.754 194.869 294.754 208.902V280.049C294.754 282.856 297.03 285.131 299.836 285.131C302.643 285.131 304.918 282.856 304.918 280.049V208.902C304.923 193.167 294.588 179.298 279.508 174.802V162.3C285.603 160.146 289.675 154.382 289.672 147.918ZM208.361 88.4579C207.976 84.1774 209.415 79.9342 212.324 76.7704C215.197 73.5569 219.296 71.7107 223.607 71.6884H274.426C288.459 71.6884 299.836 83.0657 299.836 97.0982V102.18C299.829 112.776 293.245 122.255 283.32 125.965H282.913C280.543 126.808 278.059 127.287 275.545 127.387H264.262C261.456 127.387 259.18 125.111 259.18 122.305V107.262C259.18 104.456 256.905 102.18 254.098 102.18H224.47C216.396 102.359 209.467 96.4605 208.361 88.4579ZM228.689 137.754V112.344H249.016V122.508C249.016 130.928 255.843 137.754 264.262 137.754H275.95C277.171 137.754 278.339 137.754 279.508 137.449V147.918C279.508 150.724 277.233 153 274.426 153H243.934C235.515 153 228.689 146.173 228.689 137.754ZM249.016 173.328V163.164H269.344V173.328H249.016Z" fill="#F8F8F8"/>
<path d="M274.426 208.902C271.62 208.902 269.344 211.177 269.344 213.984V259.721C269.344 268.141 262.518 274.967 254.098 274.967H203.279V254.639H243.934C246.741 254.639 249.016 252.364 249.016 249.557V213.984C249.016 211.177 246.741 208.902 243.934 208.902C241.128 208.902 238.852 211.177 238.852 213.984V244.475H188.033C180.775 244.483 174.07 248.361 170.444 254.649C166.819 260.937 166.819 268.682 170.449 274.967H134.469C138.099 268.682 138.099 260.937 134.474 254.649C130.848 248.361 124.143 244.483 116.885 244.475H66.0656V213.984C66.0656 211.177 63.7901 208.902 60.9836 208.902C58.1771 208.902 55.9016 211.177 55.9016 213.984V249.557C55.9016 252.364 58.1771 254.639 60.9836 254.639H101.639V274.967H50.8197C42.4002 274.967 35.5738 268.141 35.5738 259.721V213.984C35.5738 211.177 33.2983 208.902 30.4918 208.902C27.6853 208.902 25.4098 211.177 25.4098 213.984V259.721C25.4098 273.754 36.7872 285.131 50.8197 285.131H254.098C268.131 285.131 279.508 273.754 279.508 259.721V213.984C279.508 211.177 277.233 208.902 274.426 208.902ZM111.803 274.967V254.639H116.885C122.498 254.639 127.049 259.19 127.049 264.803C127.049 270.416 122.498 274.967 116.885 274.967H111.803ZM177.869 264.803C177.869 259.19 182.42 254.639 188.033 254.639H193.115V274.967H188.033C182.42 274.967 177.869 270.416 177.869 264.803Z" fill="#F8F8F8"/>
<path d="M55.9017 61.5246H162.623C173.849 61.5246 182.951 52.4227 182.951 41.1968V15.7869C182.951 7.36743 176.124 0.541016 167.705 0.541016H96.5574C88.1379 0.541016 81.3115 7.36743 81.3115 15.7869V23.8664L52.2937 52.8347C50.8519 54.2962 50.4301 56.4824 51.2266 58.3732C52.0058 60.2715 53.8495 61.5147 55.9017 61.5246ZM90.0015 29.5588C90.9518 28.601 91.4829 27.3007 91.4754 25.9508V15.7869C91.4754 12.9804 93.7509 10.7049 96.5574 10.7049H167.705C170.511 10.7049 172.787 12.9804 172.787 15.7869V41.1968C172.787 46.8097 168.236 51.3607 162.623 51.3607H68.15L90.0015 29.5588Z" fill="#F8F8F8"/>
<path d="M127.049 25.9509H106.721C103.915 25.9509 101.639 28.2263 101.639 31.0328C101.639 33.8393 103.915 36.1148 106.721 36.1148H127.049C129.856 36.1148 132.131 33.8393 132.131 31.0328C132.131 28.2263 129.856 25.9509 127.049 25.9509Z" fill="#F8F8F8"/>
<path d="M157.541 25.9509H147.377C144.571 25.9509 142.295 28.2263 142.295 31.0328C142.295 33.8393 144.571 36.1148 147.377 36.1148H157.541C160.347 36.1148 162.623 33.8393 162.623 31.0328C162.623 28.2263 160.347 25.9509 157.541 25.9509Z" fill="#F8F8F8"/>
<path d="M121.967 112.344C113.548 112.344 106.721 119.171 106.721 127.59V178.41C106.721 186.829 113.548 193.656 121.967 193.656H150.069L173.956 222.319C175.328 223.964 177.584 224.574 179.596 223.842C181.608 223.115 182.951 221.205 182.951 219.066V193.656C191.37 193.656 198.197 186.829 198.197 178.41V127.59C198.197 119.171 191.37 112.344 182.951 112.344H121.967ZM188.033 127.59V178.41C188.033 181.216 185.757 183.492 182.951 183.492H177.869C175.062 183.492 172.787 185.767 172.787 188.574V205.041L156.372 185.321C155.404 184.159 153.97 183.489 152.459 183.492H121.967C119.161 183.492 116.885 181.216 116.885 178.41V127.59C116.885 124.784 119.161 122.508 121.967 122.508H182.951C185.757 122.508 188.033 124.784 188.033 127.59Z" fill="#F8F8F8"/>
<path d="M132.131 142.836H147.377C150.184 142.836 152.459 140.561 152.459 137.754C152.459 134.948 150.184 132.672 147.377 132.672H132.131C129.325 132.672 127.049 134.948 127.049 137.754C127.049 140.561 129.325 142.836 132.131 142.836Z" fill="#F8F8F8"/>
<path d="M167.705 163.164H132.131C129.325 163.164 127.049 165.439 127.049 168.246C127.049 171.052 129.325 173.328 132.131 173.328H167.705C170.511 173.328 172.787 171.052 172.787 168.246C172.787 165.439 170.511 163.164 167.705 163.164Z" fill="#F8F8F8"/>
<path d="M172.787 142.836H162.623C159.816 142.836 157.541 145.112 157.541 147.918C157.541 150.725 159.816 153 162.623 153H172.787C175.593 153 177.869 150.725 177.869 147.918C177.869 145.112 175.593 142.836 172.787 142.836Z" fill="#F8F8F8"/>
</svg>
