<svg width="292" height="292" viewBox="0 0 292 292" fill="none" xmlns="http://www.w3.org/2000/svg">
<path d="M287.438 78.1872L148.47 1.31691C147.734 0.891781 146.899 0.667969 146.048 0.667969C145.198 0.667969 144.363 0.891781 143.627 1.31691L3.15782 78.8169C2.43709 79.2684 1.83611 79.8874 1.406 80.6211C0.975899 81.3548 0.729409 82.1815 0.687504 83.031V101.534C0.661294 101.824 0.661294 102.116 0.687504 102.406V242.875C0.687504 244.159 1.19783 245.391 2.10621 246.3C3.01458 247.208 4.24661 247.718 5.53125 247.718C6.8159 247.718 8.04792 247.208 8.9563 246.3C9.86468 245.391 10.375 244.159 10.375 242.875V107.25H72.4719C72.7942 107.277 73.1183 107.277 73.4406 107.25C73.7781 107.297 74.1204 107.297 74.4578 107.25H146H217.736H218.705H219.528H281.722V136.312C281.722 137.597 282.232 138.829 283.141 139.737C284.049 140.646 285.281 141.156 286.566 141.156C287.85 141.156 289.082 140.646 289.991 139.737C290.899 138.829 291.409 137.597 291.409 136.312V83.031C291.428 81.884 291.039 80.7677 290.312 79.8807C289.584 78.9936 288.566 78.3935 287.438 78.1872ZM182.038 53.9685L209.647 97.5622H154.719L182.038 53.9685ZM137.233 97.5622H82.0141L109.914 53.9685L137.233 97.5622ZM196.23 58.231L227.666 75.62L217.978 92.9607L196.23 58.231ZM146 93.2513L116.938 46.5091L146 30.4278L175.062 46.5575L146 93.2513ZM73.5859 92.7185L64.1891 75.4747L95.6734 58.1825L73.5859 92.7185ZM55.6641 80.1247L65.3516 97.4653H24.2766L55.6641 80.1247ZM226.745 97.5622L236.142 80.3185L267.094 97.5622H226.745ZM146 11.0528L281.625 86.131V94.4622L148.422 20.6919C147.686 20.2668 146.85 20.043 146 20.043C145.15 20.043 144.314 20.2668 143.578 20.6919L107.492 40.5513L10.375 93.9294V85.6466L146 11.0528Z" fill="#F8F8F8"/>
<path d="M286.469 150.844C285.184 150.844 283.952 151.354 283.044 152.262C282.135 153.171 281.625 154.403 281.625 155.688V281.625H262.25V126.625C262.25 125.34 261.74 124.108 260.831 123.2C259.923 122.292 258.691 121.781 257.406 121.781H165.375C164.09 121.781 162.858 122.292 161.95 123.2C161.042 124.108 160.531 125.34 160.531 126.625V141.156H116.938C115.653 141.156 114.421 141.667 113.512 142.575C112.604 143.483 112.094 144.715 112.094 146V189.594C112.094 190.878 112.604 192.11 113.512 193.019C114.421 193.927 115.653 194.438 116.938 194.438H131.469V223.5H97.5625V170.219C97.5625 168.934 97.0522 167.702 96.1438 166.794C95.2354 165.885 94.0034 165.375 92.7188 165.375H34.5938C33.3091 165.375 32.0771 165.885 31.1687 166.794C30.2603 167.702 29.75 168.934 29.75 170.219V208.969C29.75 210.253 30.2603 211.485 31.1687 212.394C32.0771 213.302 33.3091 213.812 34.5938 213.812C35.8784 213.812 37.1104 213.302 38.0188 212.394C38.9272 211.485 39.4375 210.253 39.4375 208.969V175.062H49.125V194.438C49.125 195.722 49.6353 196.954 50.5437 197.863C51.4521 198.771 52.6841 199.281 53.9688 199.281H73.3438C74.6284 199.281 75.8604 198.771 76.7688 197.863C77.6772 196.954 78.1875 195.722 78.1875 194.438V175.062H87.875V223.5H34.5938C33.3091 223.5 32.0771 224.01 31.1687 224.919C30.2603 225.827 29.75 227.059 29.75 228.344V281.625H10.375V262.25C10.375 260.965 9.86468 259.733 8.9563 258.825C8.04792 257.917 6.81589 257.406 5.53125 257.406C4.24661 257.406 3.01458 257.917 2.1062 258.825C1.19782 259.733 0.6875 260.965 0.6875 262.25V286.469C0.6875 287.753 1.19782 288.985 2.1062 289.894C3.01458 290.802 4.24661 291.312 5.53125 291.312H286.469C287.753 291.312 288.985 290.802 289.894 289.894C290.802 288.985 291.312 287.753 291.312 286.469V155.688C291.312 154.403 290.802 153.171 289.894 152.262C288.985 151.354 287.753 150.844 286.469 150.844ZM68.5 189.594H58.8125V175.062H68.5V189.594ZM121.781 184.75V150.844H208.969V184.75H199.281V170.219C199.281 168.934 198.771 167.702 197.863 166.794C196.954 165.885 195.722 165.375 194.438 165.375H136.312C135.028 165.375 133.796 165.885 132.887 166.794C131.979 167.702 131.469 168.934 131.469 170.219V184.75H121.781ZM175.062 233.188H184.75V247.719H175.062V233.188ZM160.531 175.062H170.219V189.594H160.531V175.062ZM141.156 175.062H150.844V194.438C150.844 195.722 151.354 196.954 152.262 197.863C153.171 198.771 154.403 199.281 155.688 199.281H175.062C176.347 199.281 177.579 198.771 178.488 197.863C179.396 196.954 179.906 195.722 179.906 194.438V175.062H189.594V223.5H141.156V175.062ZM126.625 233.188V247.719H116.938V233.188H126.625ZM68.5 233.188V247.719H58.8125V233.188H68.5ZM39.4375 233.188H49.125V252.562C49.125 253.847 49.6353 255.079 50.5437 255.988C51.4521 256.896 52.6841 257.406 53.9688 257.406H73.3438C74.6284 257.406 75.8604 256.896 76.7688 255.988C77.6772 255.079 78.1875 253.847 78.1875 252.562V233.188H87.875V281.625H39.4375V233.188ZM97.5625 233.188H107.25V252.562C107.25 253.847 107.76 255.079 108.669 255.988C109.577 256.896 110.809 257.406 112.094 257.406H131.469C132.753 257.406 133.985 256.896 134.894 255.988C135.802 255.079 136.312 253.847 136.312 252.562V233.188H146V281.625H97.5625V233.188ZM155.688 281.625V233.188H165.375V252.562C165.375 253.847 165.885 255.079 166.794 255.988C167.702 256.896 168.934 257.406 170.219 257.406H189.594C190.878 257.406 192.11 256.896 193.019 255.988C193.927 255.079 194.438 253.847 194.438 252.562V233.188H204.125V281.625H155.688ZM242.875 281.625V238.031C242.875 236.747 242.365 235.515 241.456 234.606C240.548 233.698 239.316 233.188 238.031 233.188C236.747 233.188 235.515 233.698 234.606 234.606C233.698 235.515 233.188 236.747 233.188 238.031V281.625H213.812V228.344C213.812 227.059 213.302 225.827 212.394 224.919C211.485 224.01 210.253 223.5 208.969 223.5H199.281V194.438H213.812C215.097 194.438 216.329 193.927 217.238 193.019C218.146 192.11 218.656 190.878 218.656 189.594V146C218.656 144.715 218.146 143.483 217.238 142.575C216.329 141.667 215.097 141.156 213.812 141.156H170.219V131.469H233.188V218.656C233.188 219.941 233.698 221.173 234.606 222.081C235.515 222.99 236.747 223.5 238.031 223.5C239.316 223.5 240.548 222.99 241.456 222.081C242.365 221.173 242.875 219.941 242.875 218.656V131.469H252.562V281.625H242.875Z" fill="#F8F8F8"/>
</svg>
