<svg width="218" height="310" viewBox="0 0 218 310" fill="none" xmlns="http://www.w3.org/2000/svg" opacity="0.1">
<path d="M213.907 101.248L201.232 89.9684L208.624 74.6986C209.818 72.2403 209.907 69.3882 208.862 66.8617C207.817 64.3327 205.742 62.3742 203.16 61.4782L187.136 55.9053L188.122 38.9722C188.284 36.2413 187.269 33.5735 185.336 31.6401C183.403 29.7043 180.732 28.6922 178.001 28.8562L161.073 29.838L155.495 13.8135C154.6 11.2315 152.643 9.15938 150.12 8.11195C147.593 7.06704 144.743 7.15033 142.285 8.3391L127 15.7368L115.726 3.06659C113.861 1.10801 111.274 0 108.57 0C105.865 0 103.278 1.10801 101.412 3.06659L90.138 15.7368L74.8707 8.34415C72.4099 7.15033 69.5553 7.06451 67.0288 8.10942C64.5024 9.15686 62.5438 11.2341 61.6478 13.8186L56.0749 29.8431L39.1418 28.8613C36.4109 28.6997 33.7431 29.7144 31.8098 31.6477C29.8764 33.581 28.8618 36.2514 29.0258 38.9823L30.0077 55.9104L13.9832 61.4832C11.4037 62.3817 9.33153 64.3403 8.28662 66.8643C7.24171 69.3882 7.325 72.2403 8.51377 74.6986L15.9064 89.9735L3.23621 101.248C1.19434 103.065 0.0257568 105.667 0.0257568 108.401C0.0257568 111.134 1.19434 113.739 3.23621 115.556L15.9114 126.833L8.52639 142.103C7.33257 144.559 7.24423 147.408 8.28662 149.935C9.32648 152.459 11.3961 154.417 13.9731 155.321L29.9976 160.894L29.0157 177.827C28.8542 180.558 29.8688 183.226 31.8022 185.159C33.738 187.092 36.4058 188.104 39.1368 187.943L56.0648 186.961L61.6377 202.985C62.5362 205.565 64.4923 207.64 67.0187 208.685C69.5427 209.732 72.3947 209.649 74.8531 208.457L90.1279 201.062L101.397 213.73C103.215 215.774 105.819 216.943 108.553 216.943C111.289 216.943 113.893 215.774 115.711 213.73L126.99 201.057L142.257 208.447C144.718 209.646 147.575 209.732 150.102 208.685C152.631 207.64 154.592 205.56 155.485 202.973L161.063 186.951L177.996 187.933C180.727 188.094 183.395 187.08 185.328 185.144C187.262 183.21 188.276 180.54 188.112 177.812L187.136 160.894L203.16 155.321C205.742 154.422 207.814 152.464 208.862 149.94C209.907 147.416 209.823 144.564 208.635 142.103L201.237 126.828L213.907 115.556C215.949 113.739 217.118 111.134 217.118 108.401C217.118 105.667 215.949 103.065 213.907 101.248ZM193.923 119.493C190.745 122.351 189.829 126.959 191.674 130.813L198.948 145.841L183.193 151.315C179.16 152.734 176.553 156.651 176.798 160.919L177.764 177.574L161.084 176.613C156.808 176.363 152.883 178.978 151.47 183.021L145.99 198.778L130.97 191.509C127.114 189.664 122.503 190.578 119.643 193.758L108.568 206.221L97.4751 193.753C94.618 190.57 90.0017 189.654 86.1477 191.509L71.1277 198.778L65.6634 183.021C64.2601 178.97 60.3303 176.35 56.0497 176.613L39.3891 177.579L40.3609 160.924C40.6006 156.651 37.9858 152.734 33.9475 151.32L18.1906 145.846L25.4595 130.818C27.3096 126.964 26.3934 122.351 23.2107 119.493L10.7424 108.381L23.2157 97.2879C26.3934 94.4308 27.307 89.822 25.4595 85.968L18.1906 70.9581L33.9475 65.4786C37.9858 64.0627 40.6006 60.1481 40.3609 55.8725L39.3891 39.2195L56.0497 40.1862C60.3151 40.3957 64.2172 37.7935 65.6634 33.7754L71.1378 18.0209L86.1578 25.2874C90.0169 27.1349 94.6307 26.2187 97.4903 23.0411L108.568 10.5778L119.666 23.0461C122.523 26.2238 127.131 27.1374 130.986 25.2874L146.005 18.0209L151.47 33.7754C152.863 37.8364 156.8 40.4638 161.084 40.1912L177.744 39.2246L176.798 55.8801C176.555 60.1455 179.163 64.0576 183.193 65.4786L198.948 70.953L191.674 85.9781C189.829 89.8347 190.747 94.4459 193.928 97.303L206.391 108.381L193.923 119.493Z" fill="#F8F8F8"/>
<path d="M108.568 36.0138C68.5987 36.0138 36.2014 68.4137 36.2014 108.38C36.2014 148.347 68.5987 180.747 108.568 180.747C148.534 180.747 180.934 148.347 180.934 108.38C180.884 68.4339 148.514 36.0618 108.568 36.0138ZM108.568 170.409C74.3104 170.409 46.5395 142.638 46.5395 108.38C46.5395 74.1228 74.3104 46.3519 108.568 46.3519C142.823 46.3519 170.596 74.1228 170.596 108.38C170.558 142.623 142.808 170.371 108.568 170.409Z" fill="#F8F8F8"/>
<path d="M149.92 108.381C149.92 131.22 131.404 149.733 108.568 149.733C85.7287 149.733 67.2156 131.22 67.2156 108.381C67.2156 85.5414 85.7287 67.0283 108.568 67.0283C111.422 67.0283 113.737 64.7138 113.737 61.8592C113.737 59.0047 111.422 56.6902 108.568 56.6902C80.0196 56.6902 56.8775 79.8322 56.8775 108.381C56.8775 136.929 80.0196 160.071 108.568 160.071C137.114 160.071 160.258 136.929 160.258 108.381C160.258 105.526 157.944 103.211 155.089 103.211C152.232 103.211 149.92 105.526 149.92 108.381Z" fill="#F8F8F8"/>
<path d="M113.737 87.7047C113.734 87.0283 113.601 86.3595 113.338 85.736C112.677 84.1409 111.263 82.9824 109.57 82.6442C107.876 82.3085 106.127 82.8411 104.908 84.0602L94.5701 94.3982C93.2248 95.6955 92.6872 97.6188 93.1592 99.4259C93.6337 101.233 95.0446 102.644 96.8517 103.118C98.6589 103.59 100.58 103.053 101.877 101.708L103.399 100.203V123.888H93.0608C90.2037 123.888 87.8917 126.202 87.8917 129.057C87.8917 131.912 90.2037 134.226 93.0608 134.226H124.075C126.93 134.226 129.244 131.912 129.244 129.057C129.244 126.202 126.93 123.888 124.075 123.888H113.737V87.7047Z" fill="#F8F8F8"/>
<path d="M184.521 201.584C183.925 199.8 182.411 198.48 180.561 198.137C178.713 197.794 176.825 198.48 175.629 199.929C174.433 201.38 174.12 203.364 174.809 205.113L201.61 278.385L171.815 270.115C167.59 268.936 163.085 270.576 160.604 274.193L143.199 299.703L121.866 241.029C121.271 239.244 119.756 237.924 117.909 237.581C116.059 237.238 114.171 237.924 112.975 239.375C111.778 240.824 111.465 242.811 112.154 244.56L133.507 303.254C134.822 306.863 138.042 309.435 141.854 309.917C145.665 310.402 149.425 308.716 151.598 305.548L169.044 280.059L198.849 288.33C202.554 289.367 206.53 288.244 209.144 285.42C211.759 282.598 212.574 278.547 211.254 274.933L184.521 201.584Z" fill="#F8F8F8"/>
<path d="M146.818 271.072C148.744 271.316 150.644 270.456 151.727 268.843L152.063 268.325C157.098 261.125 166.106 257.849 174.592 260.133L175.21 260.304C177.964 261.064 180.811 259.451 181.57 256.698C182.333 253.947 180.717 251.1 177.966 250.337L177.355 250.173C167.615 247.536 157.202 249.747 149.377 256.117L135.791 218.808C134.935 216.082 132.033 214.568 129.307 215.424C126.584 216.279 125.067 219.184 125.925 221.908L142.588 267.702C143.252 269.532 144.885 270.834 146.818 271.072Z" fill="#F8F8F8"/>
<path d="M101.895 237.937C99.2091 236.965 96.2434 238.353 95.2717 241.039L74.0529 299.688L56.5519 274.183C54.0684 270.569 49.5657 268.928 45.3381 270.1L15.6287 278.489L42.3295 205.113C43.2179 202.458 41.8247 199.578 39.1923 198.622C36.5598 197.665 33.6446 198.977 32.6174 201.585L5.91409 274.948C4.59154 278.562 5.40678 282.616 8.02158 285.44C10.6364 288.267 14.6141 289.39 18.3218 288.35L48.0437 280.029L65.5498 305.533C67.7229 308.701 71.4861 310.387 75.2947 309.902C79.1059 309.42 82.3264 306.848 83.6414 303.239L104.999 244.56C105.466 243.27 105.403 241.847 104.82 240.605C104.237 239.363 103.184 238.404 101.895 237.937Z" fill="#F8F8F8"/>
<path d="M55.7291 213.659C54.4394 213.19 53.0159 213.253 51.7715 213.836C50.5298 214.417 49.5681 215.469 49.1012 216.759L35.6839 253.563C35.0252 255.375 35.429 257.404 36.7339 258.825C38.0388 260.244 40.0251 260.822 41.8853 260.32L42.5314 260.143C51.0017 257.876 59.987 261.14 65.0273 268.315L65.4008 268.833C66.4281 270.388 68.215 271.266 70.0752 271.135C71.9328 271.003 73.5784 269.883 74.3785 268.199C75.1786 266.516 75.012 264.532 73.9393 263.008L73.5683 262.46C67.8516 254.123 58.4221 249.106 48.3163 249.02L58.7831 220.254C59.7447 217.589 58.3818 214.649 55.7291 213.659Z" fill="#F8F8F8"/>
</svg>
