<svg width="75" height="102" viewBox="0 0 75 102" fill="none" xmlns="http://www.w3.org/2000/svg">
<path opacity="0.3" d="M1.26724 96.4962C8.45255 94.5463 15.3067 91.5006 21.5896 87.466C21.8325 87.2769 22.1393 87.1918 22.4426 87.2295C22.7459 87.2672 23.0208 87.4246 23.2069 87.6671C23.393 87.9095 23.4749 88.2172 23.4348 88.5224C23.3946 88.8275 23.2356 89.1052 22.9927 89.2944L17.96 94.0508C29.8079 92.9062 40.5029 87.0725 49.426 79.0485C58.5973 70.8076 71.8308 57.0637 67.9642 43.6177C67.756 42.9188 67.479 42.2431 67.1374 41.6004C64.1076 46.0603 59.8124 50.4975 54.3729 51.0824C49.9298 51.5597 44.9809 49.0377 44.385 44.2356C42.8657 31.8342 60.7478 29.7774 67.1792 37.2906C73.2924 26.3403 73.4102 12.9345 68.363 1.57605C68.0164 0.792297 69.1212 0.113793 69.5538 0.897556C72.6903 6.80709 74.2509 13.4429 74.0849 20.1643C73.9189 26.8858 72.032 33.4659 68.6062 39.2693C75.9622 51.0791 65.2618 65.6522 57.3253 74.3948C46.9596 85.833 33.5812 94.824 18.2153 96.3341L24.2567 99.7104C25.1788 100.243 24.847 101.988 23.6792 101.861C16.1748 101.046 8.70732 100.005 1.27667 98.737C0.10038 98.5173 0.221606 96.7742 1.26724 96.4962ZM47.7029 39.6812C43.6431 46.7131 52.1217 50.4036 57.4704 47.8041C60.9007 46.1212 63.7239 42.7218 65.7903 39.5685C61.2691 34.0274 51.9556 32.4006 47.7029 39.6812ZM13.769 95.5181C13.7462 95.3489 13.764 95.1764 13.8209 95.0148C13.8779 94.8533 13.9722 94.7074 14.0962 94.5893L14.8184 93.9135C12.1261 95.1958 9.36123 96.3157 6.53865 97.2671C10.3966 97.8388 14.2392 98.4015 18.0664 98.9554C16.7848 98.2155 15.5032 97.4755 14.2124 96.7303C14.0167 96.6056 13.8675 96.4196 13.7875 96.2008C13.7074 95.982 13.7009 95.7422 13.769 95.5181Z" fill="white"/>
</svg>
